<?xml version="1.0" encoding="UTF-8" standalone="no"?>
<!DOCTYPE svg PUBLIC "-//W3C//DTD SVG 1.1//EN"
 "http://www.w3.org/Graphics/SVG/1.1/DTD/svg11.dtd">
<!-- Generated by graphviz version 5.0.0 (20220707.1540)
 -->
<!-- Title: dependencies Pages: 1 -->
<svg width="2271pt" height="247pt"
 viewBox="0.00 0.00 2271.00 246.80" xmlns="http://www.w3.org/2000/svg" xmlns:xlink="http://www.w3.org/1999/xlink">
<g id="graph0" class="graph" transform="scale(1 1) rotate(0) translate(4 242.8)">
<title>dependencies</title>
<polygon fill="white" stroke="transparent" points="-4,4 -4,-242.8 2267,-242.8 2267,4 -4,4"/>
<text text-anchor="middle" x="1131.5" y="-8.2" font-family="sans-serif" font-size="14.00">dependencies</text>
<g id="clust1" class="cluster">
<title>cluster_WmMapModule</title>
<polygon fill="none" stroke="black" stroke-dasharray="1,5" points="8,-32.8 8,-230.8 2255,-230.8 2255,-32.8 8,-32.8"/>
</g>
<g id="clust2" class="cluster">
<title>cluster_WmMapModule_declarations</title>
<polygon fill="none" stroke="black" points="34,-40.8 34,-92.8 2230,-92.8 2230,-40.8 34,-40.8"/>
</g>
<g id="clust15" class="cluster">
<title>cluster_WmMapModule_exports</title>
<polygon fill="none" stroke="black" points="16,-170.8 16,-222.8 2247,-222.8 2247,-170.8 16,-170.8"/>
</g>
<!-- WmMapComponent -->
<g id="node1" class="node">
<title>WmMapComponent</title>
<polygon fill="#ffffb3" stroke="black" points="2221.6,-84.8 2090.4,-84.8 2090.4,-48.8 2221.6,-48.8 2221.6,-84.8"/>
<text text-anchor="middle" x="2156" y="-62.6" font-family="Times,serif" font-size="14.00">WmMapComponent</text>
</g>
<!-- WmMapModule -->
<g id="node12" class="node">
<title>WmMapModule</title>
<polygon fill="#8dd3c7" stroke="black" points="1300.82,-149.8 1297.82,-153.8 1276.82,-153.8 1273.82,-149.8 1191.18,-149.8 1191.18,-113.8 1300.82,-113.8 1300.82,-149.8"/>
<text text-anchor="middle" x="1246" y="-127.6" font-family="Times,serif" font-size="14.00">WmMapModule</text>
</g>
<!-- WmMapComponent&#45;&gt;WmMapModule -->
<g id="edge1" class="edge">
<title>WmMapComponent&#45;&gt;WmMapModule</title>
<path fill="none" stroke="black" d="M2097.58,-84.97C2097.58,-103.89 2097.58,-130.8 2097.58,-130.8 2097.58,-130.8 1310.89,-130.8 1310.89,-130.8"/>
<polygon fill="black" stroke="black" points="1310.89,-127.3 1300.89,-130.8 1310.89,-134.3 1310.89,-127.3"/>
</g>
<!-- WmMapControls -->
<g id="node2" class="node">
<title>WmMapControls</title>
<polygon fill="#ffffb3" stroke="black" points="2071.99,-84.8 1958.01,-84.8 1958.01,-48.8 2071.99,-48.8 2071.99,-84.8"/>
<text text-anchor="middle" x="2015" y="-62.6" font-family="Times,serif" font-size="14.00">WmMapControls</text>
</g>
<!-- WmMapControls&#45;&gt;WmMapModule -->
<g id="edge2" class="edge">
<title>WmMapControls&#45;&gt;WmMapModule</title>
<path fill="none" stroke="black" d="M1963.63,-85.1C1963.63,-103.07 1963.63,-127.8 1963.63,-127.8 1963.63,-127.8 1310.82,-127.8 1310.82,-127.8"/>
<polygon fill="black" stroke="black" points="1310.82,-124.3 1300.82,-127.8 1310.82,-131.3 1310.82,-124.3"/>
</g>
<!-- WmMapCustomTracksDirective -->
<g id="node3" class="node">
<title>WmMapCustomTracksDirective</title>
<polygon fill="#ffffb3" stroke="black" points="1939.5,-84.8 1740.5,-84.8 1740.5,-48.8 1939.5,-48.8 1939.5,-84.8"/>
<text text-anchor="middle" x="1840" y="-62.6" font-family="Times,serif" font-size="14.00">WmMapCustomTracksDirective</text>
</g>
<!-- WmMapCustomTracksDirective&#45;&gt;WmMapModule -->
<g id="edge3" class="edge">
<title>WmMapCustomTracksDirective&#45;&gt;WmMapModule</title>
<path fill="none" stroke="black" d="M1744.37,-84.84C1744.37,-101.53 1744.37,-123.8 1744.37,-123.8 1744.37,-123.8 1310.76,-123.8 1310.76,-123.8"/>
<polygon fill="black" stroke="black" points="1310.76,-120.3 1300.76,-123.8 1310.76,-127.3 1310.76,-120.3"/>
</g>
<!-- WmMapLayerDirective -->
<g id="node4" class="node">
<title>WmMapLayerDirective</title>
<polygon fill="#ffffb3" stroke="black" points="1722.49,-84.8 1571.51,-84.8 1571.51,-48.8 1722.49,-48.8 1722.49,-84.8"/>
<text text-anchor="middle" x="1647" y="-62.6" font-family="Times,serif" font-size="14.00">WmMapLayerDirective</text>
</g>
<!-- WmMapLayerDirective&#45;&gt;WmMapModule -->
<g id="edge4" class="edge">
<title>WmMapLayerDirective&#45;&gt;WmMapModule</title>
<path fill="none" stroke="black" d="M1673.83,-85.08C1673.83,-100.75 1673.83,-120.8 1673.83,-120.8 1673.83,-120.8 1311.06,-120.8 1311.06,-120.8"/>
<polygon fill="black" stroke="black" points="1311.06,-117.3 1301.06,-120.8 1311.06,-124.3 1311.06,-117.3"/>
</g>
<!-- WmMapLayerProgressBarDirective -->
<g id="node5" class="node">
<title>WmMapLayerProgressBarDirective</title>
<polygon fill="#ffffb3" stroke="black" points="1553.42,-84.8 1334.58,-84.8 1334.58,-48.8 1553.42,-48.8 1553.42,-84.8"/>
<text text-anchor="middle" x="1444" y="-62.6" font-family="Times,serif" font-size="14.00">WmMapLayerProgressBarDirective</text>
</g>
<!-- WmMapLayerProgressBarDirective&#45;&gt;WmMapModule -->
<g id="edge5" class="edge">
<title>WmMapLayerProgressBarDirective&#45;&gt;WmMapModule</title>
<path fill="none" stroke="black" d="M1481.24,-84.92C1481.24,-99.58 1481.24,-117.8 1481.24,-117.8 1481.24,-117.8 1310.86,-117.8 1310.86,-117.8"/>
<polygon fill="black" stroke="black" points="1310.86,-114.3 1300.86,-117.8 1310.86,-121.3 1310.86,-114.3"/>
</g>
<!-- WmMapPoisDirective -->
<g id="node6" class="node">
<title>WmMapPoisDirective</title>
<polygon fill="#ffffb3" stroke="black" points="1316.97,-84.8 1175.03,-84.8 1175.03,-48.8 1316.97,-48.8 1316.97,-84.8"/>
<text text-anchor="middle" x="1246" y="-62.6" font-family="Times,serif" font-size="14.00">WmMapPoisDirective</text>
</g>
<!-- WmMapPoisDirective&#45;&gt;WmMapModule -->
<g id="edge6" class="edge">
<title>WmMapPoisDirective&#45;&gt;WmMapModule</title>
<path fill="none" stroke="black" d="M1246,-84.91C1246,-84.91 1246,-103.79 1246,-103.79"/>
<polygon fill="black" stroke="black" points="1242.5,-103.79 1246,-113.79 1249.5,-103.79 1242.5,-103.79"/>
</g>
<!-- WmMapSaveCustomTrackControls -->
<g id="node7" class="node">
<title>WmMapSaveCustomTrackControls</title>
<polygon fill="#ffffb3" stroke="black" points="1156.91,-84.8 939.09,-84.8 939.09,-48.8 1156.91,-48.8 1156.91,-84.8"/>
<text text-anchor="middle" x="1048" y="-62.6" font-family="Times,serif" font-size="14.00">WmMapSaveCustomTrackControls</text>
</g>
<!-- WmMapSaveCustomTrackControls&#45;&gt;WmMapModule -->
<g id="edge7" class="edge">
<title>WmMapSaveCustomTrackControls&#45;&gt;WmMapModule</title>
<path fill="none" stroke="black" d="M1083.4,-84.92C1083.4,-99.58 1083.4,-117.8 1083.4,-117.8 1083.4,-117.8 1180.95,-117.8 1180.95,-117.8"/>
<polygon fill="black" stroke="black" points="1180.95,-121.3 1190.95,-117.8 1180.95,-114.3 1180.95,-121.3"/>
</g>
<!-- WmMapTrackDirective -->
<g id="node8" class="node">
<title>WmMapTrackDirective</title>
<polygon fill="#ffffb3" stroke="black" points="921.49,-84.8 770.51,-84.8 770.51,-48.8 921.49,-48.8 921.49,-84.8"/>
<text text-anchor="middle" x="846" y="-62.6" font-family="Times,serif" font-size="14.00">WmMapTrackDirective</text>
</g>
<!-- WmMapTrackDirective&#45;&gt;WmMapModule -->
<g id="edge8" class="edge">
<title>WmMapTrackDirective&#45;&gt;WmMapModule</title>
<path fill="none" stroke="black" d="M868.25,-85.08C868.25,-100.75 868.25,-120.8 868.25,-120.8 868.25,-120.8 1181.07,-120.8 1181.07,-120.8"/>
<polygon fill="black" stroke="black" points="1181.07,-124.3 1191.07,-120.8 1181.07,-117.3 1181.07,-124.3"/>
</g>
<!-- wmMapCustomTrackDrawTrackDirective -->
<g id="node9" class="node">
<title>wmMapCustomTrackDrawTrackDirective</title>
<polygon fill="#ffffb3" stroke="black" points="752.19,-84.8 497.81,-84.8 497.81,-48.8 752.19,-48.8 752.19,-84.8"/>
<text text-anchor="middle" x="625" y="-62.6" font-family="Times,serif" font-size="14.00">wmMapCustomTrackDrawTrackDirective</text>
</g>
<!-- wmMapCustomTrackDrawTrackDirective&#45;&gt;WmMapModule -->
<g id="edge9" class="edge">
<title>wmMapCustomTrackDrawTrackDirective&#45;&gt;WmMapModule</title>
<path fill="none" stroke="black" d="M748.72,-84.84C748.72,-101.53 748.72,-123.8 748.72,-123.8 748.72,-123.8 1180.88,-123.8 1180.88,-123.8"/>
<polygon fill="black" stroke="black" points="1180.88,-127.3 1190.88,-123.8 1180.88,-120.3 1180.88,-127.3"/>
</g>
<!-- wmMapTrackHighLightDirective -->
<g id="node10" class="node">
<title>wmMapTrackHighLightDirective</title>
<polygon fill="#ffffb3" stroke="black" points="479.72,-84.8 274.28,-84.8 274.28,-48.8 479.72,-48.8 479.72,-84.8"/>
<text text-anchor="middle" x="377" y="-62.6" font-family="Times,serif" font-size="14.00">wmMapTrackHighLightDirective</text>
</g>
<!-- wmMapTrackHighLightDirective&#45;&gt;WmMapModule -->
<g id="edge10" class="edge">
<title>wmMapTrackHighLightDirective&#45;&gt;WmMapModule</title>
<path fill="none" stroke="black" d="M474.23,-85.1C474.23,-103.07 474.23,-127.8 474.23,-127.8 474.23,-127.8 1181.12,-127.8 1181.12,-127.8"/>
<polygon fill="black" stroke="black" points="1181.12,-131.3 1191.12,-127.8 1181.12,-124.3 1181.12,-131.3"/>
</g>
<!-- wmMapTrackRelatedPoisDirective -->
<g id="node11" class="node">
<title>wmMapTrackRelatedPoisDirective</title>
<polygon fill="#ffffb3" stroke="black" points="256.27,-84.8 41.73,-84.8 41.73,-48.8 256.27,-48.8 256.27,-84.8"/>
<text text-anchor="middle" x="149" y="-62.6" font-family="Times,serif" font-size="14.00">wmMapTrackRelatedPoisDirective</text>
</g>
<!-- wmMapTrackRelatedPoisDirective&#45;&gt;WmMapModule -->
<g id="edge11" class="edge">
<title>wmMapTrackRelatedPoisDirective&#45;&gt;WmMapModule</title>
<path fill="none" stroke="black" d="M249.01,-84.97C249.01,-103.89 249.01,-130.8 249.01,-130.8 249.01,-130.8 1181.33,-130.8 1181.33,-130.8"/>
<polygon fill="black" stroke="black" points="1181.33,-134.3 1191.33,-130.8 1181.33,-127.3 1181.33,-134.3"/>
</g>
<!-- WmMapComponent  -->
<g id="node13" class="node">
<title>WmMapComponent </title>
<polygon fill="#fb8072" stroke="black" points="2239.1,-214.8 2104.9,-214.8 2104.9,-178.8 2239.1,-178.8 2239.1,-214.8"/>
<text text-anchor="middle" x="2172" y="-192.6" font-family="Times,serif" font-size="14.00">WmMapComponent </text>
</g>
<!-- WmMapModule&#45;&gt;WmMapComponent  -->
<g id="edge12" class="edge">
<title>WmMapModule&#45;&gt;WmMapComponent </title>
<path fill="none" stroke="black" stroke-dasharray="5,2" d="M1300.96,-133.8C1498.83,-133.8 2163.12,-133.8 2163.12,-133.8 2163.12,-133.8 2163.12,-168.58 2163.12,-168.58"/>
<polygon fill="black" stroke="black" points="2159.63,-168.58 2163.12,-178.58 2166.63,-168.58 2159.63,-168.58"/>
</g>
<!-- WmMapControls  -->
<g id="node14" class="node">
<title>WmMapControls </title>
<polygon fill="#fb8072" stroke="black" points="2086.99,-214.8 1969.01,-214.8 1969.01,-178.8 2086.99,-178.8 2086.99,-214.8"/>
<text text-anchor="middle" x="2028" y="-192.6" font-family="Times,serif" font-size="14.00">WmMapControls </text>
</g>
<!-- WmMapModule&#45;&gt;WmMapControls  -->
<g id="edge13" class="edge">
<title>WmMapModule&#45;&gt;WmMapControls </title>
<path fill="none" stroke="black" stroke-dasharray="5,2" d="M1300.78,-136.8C1477.42,-136.8 2020.62,-136.8 2020.62,-136.8 2020.62,-136.8 2020.62,-168.8 2020.62,-168.8"/>
<polygon fill="black" stroke="black" points="2017.13,-168.8 2020.62,-178.8 2024.13,-168.8 2017.13,-168.8"/>
</g>
<!-- WmMapCustomTracksDirective  -->
<g id="node15" class="node">
<title>WmMapCustomTracksDirective </title>
<polygon fill="#fb8072" stroke="black" points="1951.5,-214.8 1748.5,-214.8 1748.5,-178.8 1951.5,-178.8 1951.5,-214.8"/>
<text text-anchor="middle" x="1850" y="-192.6" font-family="Times,serif" font-size="14.00">WmMapCustomTracksDirective </text>
</g>
<!-- WmMapModule&#45;&gt;WmMapCustomTracksDirective  -->
<g id="edge14" class="edge">
<title>WmMapModule&#45;&gt;WmMapCustomTracksDirective </title>
<path fill="none" stroke="black" stroke-dasharray="5,2" d="M1300.67,-140.8C1448.32,-140.8 1844.12,-140.8 1844.12,-140.8 1844.12,-140.8 1844.12,-168.77 1844.12,-168.77"/>
<polygon fill="black" stroke="black" points="1840.63,-168.77 1844.12,-178.77 1847.63,-168.77 1840.63,-168.77"/>
</g>
<!-- WmMapLayerDirective  -->
<g id="node16" class="node">
<title>WmMapLayerDirective </title>
<polygon fill="#fb8072" stroke="black" points="1730.99,-214.8 1577.01,-214.8 1577.01,-178.8 1730.99,-178.8 1730.99,-214.8"/>
<text text-anchor="middle" x="1654" y="-192.6" font-family="Times,serif" font-size="14.00">WmMapLayerDirective </text>
</g>
<!-- WmMapModule&#45;&gt;WmMapLayerDirective  -->
<g id="edge15" class="edge">
<title>WmMapModule&#45;&gt;WmMapLayerDirective </title>
<path fill="none" stroke="black" stroke-dasharray="5,2" d="M1300.77,-143.8C1405.84,-143.8 1625.42,-143.8 1625.42,-143.8 1625.42,-143.8 1625.42,-168.56 1625.42,-168.56"/>
<polygon fill="black" stroke="black" points="1621.92,-168.56 1625.42,-178.56 1628.92,-168.56 1621.92,-168.56"/>
</g>
<!-- WmMapLayerProgressBarDirective  -->
<g id="node17" class="node">
<title>WmMapLayerProgressBarDirective </title>
<polygon fill="#fb8072" stroke="black" points="1559.43,-214.8 1336.57,-214.8 1336.57,-178.8 1559.43,-178.8 1559.43,-214.8"/>
<text text-anchor="middle" x="1448" y="-192.6" font-family="Times,serif" font-size="14.00">WmMapLayerProgressBarDirective </text>
</g>
<!-- WmMapModule&#45;&gt;WmMapLayerProgressBarDirective  -->
<g id="edge16" class="edge">
<title>WmMapModule&#45;&gt;WmMapLayerProgressBarDirective </title>
<path fill="none" stroke="black" stroke-dasharray="5,2" d="M1300.73,-146.8C1348.09,-146.8 1409.01,-146.8 1409.01,-146.8 1409.01,-146.8 1409.01,-168.75 1409.01,-168.75"/>
<polygon fill="black" stroke="black" points="1405.51,-168.75 1409.01,-178.75 1412.51,-168.75 1405.51,-168.75"/>
</g>
<!-- WmMapPoisDirective  -->
<g id="node18" class="node">
<title>WmMapPoisDirective </title>
<polygon fill="#fb8072" stroke="black" points="1318.97,-214.8 1173.03,-214.8 1173.03,-178.8 1318.97,-178.8 1318.97,-214.8"/>
<text text-anchor="middle" x="1246" y="-192.6" font-family="Times,serif" font-size="14.00">WmMapPoisDirective </text>
</g>
<!-- WmMapModule&#45;&gt;WmMapPoisDirective  -->
<g id="edge17" class="edge">
<title>WmMapModule&#45;&gt;WmMapPoisDirective </title>
<path fill="none" stroke="black" stroke-dasharray="5,2" d="M1246,-149.91C1246,-149.91 1246,-168.79 1246,-168.79"/>
<polygon fill="black" stroke="black" points="1242.5,-168.79 1246,-178.79 1249.5,-168.79 1242.5,-168.79"/>
</g>
<!-- WmMapSaveCustomTrackControls  -->
<g id="node19" class="node">
<title>WmMapSaveCustomTrackControls </title>
<polygon fill="#fb8072" stroke="black" points="1155.41,-214.8 934.59,-214.8 934.59,-178.8 1155.41,-178.8 1155.41,-214.8"/>
<text text-anchor="middle" x="1045" y="-192.6" font-family="Times,serif" font-size="14.00">WmMapSaveCustomTrackControls </text>
</g>
<!-- WmMapModule&#45;&gt;WmMapSaveCustomTrackControls  -->
<g id="edge18" class="edge">
<title>WmMapModule&#45;&gt;WmMapSaveCustomTrackControls </title>
<path fill="none" stroke="black" stroke-dasharray="5,2" d="M1191.28,-146.8C1121.94,-146.8 1011.35,-146.8 1011.35,-146.8 1011.35,-146.8 1011.35,-168.75 1011.35,-168.75"/>
<polygon fill="black" stroke="black" points="1007.85,-168.75 1011.35,-178.75 1014.85,-168.75 1007.85,-168.75"/>
</g>
<!-- WmMapTrackDirective  -->
<g id="node20" class="node">
<title>WmMapTrackDirective </title>
<polygon fill="#fb8072" stroke="black" points="916.99,-214.8 763.01,-214.8 763.01,-178.8 916.99,-178.8 916.99,-214.8"/>
<text text-anchor="middle" x="840" y="-192.6" font-family="Times,serif" font-size="14.00">WmMapTrackDirective </text>
</g>
<!-- WmMapModule&#45;&gt;WmMapTrackDirective  -->
<g id="edge19" class="edge">
<title>WmMapModule&#45;&gt;WmMapTrackDirective </title>
<path fill="none" stroke="black" stroke-dasharray="5,2" d="M1191.12,-143.8C1075.93,-143.8 819.5,-143.8 819.5,-143.8 819.5,-143.8 819.5,-168.56 819.5,-168.56"/>
<polygon fill="black" stroke="black" points="816,-168.56 819.5,-178.56 823,-168.56 816,-168.56"/>
</g>
<!-- wmMapCustomTrackDrawTrackDirective  -->
<g id="node21" class="node">
<title>wmMapCustomTrackDrawTrackDirective </title>
<polygon fill="#fb8072" stroke="black" points="745.19,-214.8 486.81,-214.8 486.81,-178.8 745.19,-178.8 745.19,-214.8"/>
<text text-anchor="middle" x="616" y="-192.6" font-family="Times,serif" font-size="14.00">wmMapCustomTrackDrawTrackDirective </text>
</g>
<!-- WmMapModule&#45;&gt;wmMapCustomTrackDrawTrackDirective  -->
<g id="edge20" class="edge">
<title>WmMapModule&#45;&gt;wmMapCustomTrackDrawTrackDirective </title>
<path fill="none" stroke="black" stroke-dasharray="5,2" d="M1191.12,-140.8C1038.7,-140.8 621.38,-140.8 621.38,-140.8 621.38,-140.8 621.38,-168.77 621.38,-168.77"/>
<polygon fill="black" stroke="black" points="617.88,-168.77 621.38,-178.77 624.88,-168.77 617.88,-168.77"/>
</g>
<!-- wmMapTrackHighLightDirective  -->
<g id="node22" class="node">
<title>wmMapTrackHighLightDirective </title>
<polygon fill="#fb8072" stroke="black" points="468.72,-214.8 259.28,-214.8 259.28,-178.8 468.72,-178.8 468.72,-214.8"/>
<text text-anchor="middle" x="364" y="-192.6" font-family="Times,serif" font-size="14.00">wmMapTrackHighLightDirective </text>
</g>
<!-- WmMapModule&#45;&gt;wmMapTrackHighLightDirective  -->
<g id="edge21" class="edge">
<title>WmMapModule&#45;&gt;wmMapTrackHighLightDirective </title>
<path fill="none" stroke="black" stroke-dasharray="5,2" d="M1191.29,-136.8C999.81,-136.8 371.38,-136.8 371.38,-136.8 371.38,-136.8 371.38,-168.8 371.38,-168.8"/>
<polygon fill="black" stroke="black" points="367.88,-168.8 371.38,-178.8 374.88,-168.8 367.88,-168.8"/>
</g>
<!-- wmMapTrackRelatedPoisDirective  -->
<g id="node23" class="node">
<title>wmMapTrackRelatedPoisDirective </title>
<polygon fill="#fb8072" stroke="black" points="241.77,-214.8 24.23,-214.8 24.23,-178.8 241.77,-178.8 241.77,-214.8"/>
<text text-anchor="middle" x="133" y="-192.6" font-family="Times,serif" font-size="14.00">wmMapTrackRelatedPoisDirective </text>
</g>
<!-- WmMapModule&#45;&gt;wmMapTrackRelatedPoisDirective  -->
<g id="edge22" class="edge">
<title>WmMapModule&#45;&gt;wmMapTrackRelatedPoisDirective </title>
<path fill="none" stroke="black" stroke-dasharray="5,2" d="M1191.25,-133.8C968.46,-133.8 141.88,-133.8 141.88,-133.8 141.88,-133.8 141.88,-168.58 141.88,-168.58"/>
<polygon fill="black" stroke="black" points="138.38,-168.58 141.88,-178.58 145.38,-168.58 138.38,-168.58"/>
</g>
</g>
</svg>
